<svg width="70" height="70" viewBox="0 0 70 70" fill="none" xmlns="http://www.w3.org/2000/svg">
<path d="M35 69C53.7777 69 69 53.7777 69 35C69 16.2223 53.7777 1 35 1C16.2223 1 1 16.2223 1 35C1 53.7777 16.2223 69 35 69Z" fill="white" stroke="#252F3E" stroke-width="2"/>
<path d="M24.2229 32.9801C24.2229 33.5847 24.2882 34.075 24.4026 34.4345C24.5334 34.794 24.6968 35.1862 24.9256 35.6111C25.0073 35.7418 25.04 35.8726 25.04 35.987C25.04 36.1504 24.9419 36.3138 24.7295 36.4772L23.7 37.1635C23.5529 37.2616 23.4058 37.3106 23.2751 37.3106C23.1117 37.3106 22.9482 37.2289 22.7848 37.0818C22.556 36.8367 22.3599 36.5752 22.1965 36.3138C22.0331 36.036 21.8697 35.7255 21.6899 35.3496C20.4153 36.8531 18.8138 37.6048 16.8855 37.6048C15.5128 37.6048 14.418 37.2126 13.6172 36.4282C12.8165 35.6438 12.408 34.5979 12.408 33.2906C12.408 31.9016 12.8982 30.774 13.895 29.9242C14.8919 29.0745 16.2155 28.6496 17.8987 28.6496C18.4543 28.6496 19.0263 28.6986 19.6309 28.7803C20.2355 28.862 20.8565 28.9928 21.5102 29.1398V27.9469C21.5102 26.705 21.2487 25.8389 20.7421 25.3323C20.2192 24.8257 19.3368 24.5806 18.0785 24.5806C17.5065 24.5806 16.9182 24.6459 16.3136 24.793C15.7089 24.9401 15.1206 25.1198 14.5487 25.3486C14.2872 25.463 14.0911 25.5284 13.9767 25.561C13.8623 25.5937 13.7806 25.6101 13.7153 25.6101C13.4865 25.6101 13.3721 25.4467 13.3721 25.1035V24.3028C13.3721 24.0413 13.4048 23.8452 13.4865 23.7308C13.5682 23.6164 13.7153 23.502 13.9441 23.3876C14.516 23.0935 15.2024 22.8484 16.0031 22.6523C16.8038 22.4398 17.6536 22.3418 18.5524 22.3418C20.497 22.3418 21.9187 22.783 22.8339 23.6654C23.7326 24.5479 24.1902 25.8879 24.1902 27.6854V32.9801H24.2229ZM17.5882 35.464C18.1275 35.464 18.6831 35.366 19.2714 35.1699C19.8597 34.9738 20.3826 34.6143 20.8238 34.124C21.0853 33.8135 21.2814 33.4704 21.3795 33.0782C21.4775 32.686 21.5429 32.2121 21.5429 31.6564V30.9701C21.069 30.8557 20.5624 30.7577 20.0394 30.6923C19.5165 30.6269 19.0099 30.5942 18.5033 30.5942C17.4085 30.5942 16.6077 30.8067 16.0685 31.2479C15.5292 31.6891 15.2677 32.3101 15.2677 33.1272C15.2677 33.8952 15.4638 34.4672 15.8724 34.8594C16.2646 35.2679 16.8365 35.464 17.5882 35.464ZM30.7105 37.2289C30.4163 37.2289 30.2202 37.1799 30.0895 37.0655C29.9588 36.9674 29.8444 36.7387 29.7463 36.4282L25.9061 23.7962C25.808 23.4693 25.759 23.2569 25.759 23.1425C25.759 22.881 25.8897 22.734 26.1512 22.734H27.7527C28.0631 22.734 28.2756 22.783 28.39 22.8974C28.5207 22.9954 28.6188 23.2242 28.7168 23.5347L31.4622 34.3528L34.0115 23.5347C34.0932 23.2079 34.1912 22.9954 34.322 22.8974C34.4527 22.7993 34.6815 22.734 34.9756 22.734H36.2829C36.5934 22.734 36.8059 22.783 36.9366 22.8974C37.0673 22.9954 37.1817 23.2242 37.2471 23.5347L39.8291 34.4835L42.6561 23.5347C42.7542 23.2079 42.8686 22.9954 42.983 22.8974C43.1137 22.7993 43.3261 22.734 43.6203 22.734H45.1401C45.4015 22.734 45.5486 22.8647 45.5486 23.1425C45.5486 23.2242 45.5322 23.3059 45.5159 23.404C45.4996 23.502 45.4669 23.6327 45.4015 23.8125L41.4632 36.4445C41.3652 36.7713 41.2508 36.9838 41.12 37.0818C40.9893 37.1799 40.7769 37.2453 40.4991 37.2453H39.0937C38.7832 37.2453 38.5708 37.1962 38.44 37.0818C38.3093 36.9674 38.1949 36.755 38.1295 36.4282L35.5966 25.8879L33.08 36.4118C32.9983 36.7387 32.9002 36.9511 32.7695 37.0655C32.6388 37.1799 32.41 37.2289 32.1158 37.2289H30.7105ZM51.7093 37.6701C50.8596 37.6701 50.0098 37.5721 49.1928 37.376C48.3757 37.1799 47.7384 36.9674 47.3135 36.7223C47.052 36.5752 46.8723 36.4118 46.8069 36.2648C46.7415 36.1177 46.7088 35.9543 46.7088 35.8072V34.9738C46.7088 34.6306 46.8396 34.4672 47.0847 34.4672C47.1827 34.4672 47.2808 34.4835 47.3788 34.5162C47.4769 34.5489 47.624 34.6143 47.7874 34.6796C48.343 34.9248 48.9476 35.1209 49.585 35.2516C50.2386 35.3823 50.8759 35.4477 51.5296 35.4477C52.5591 35.4477 53.3598 35.2679 53.9155 34.9084C54.4711 34.5489 54.7652 34.026 54.7652 33.356C54.7652 32.8984 54.6181 32.5225 54.324 32.2121C54.0298 31.9016 53.4742 31.6238 52.6735 31.3623L50.304 30.6269C49.111 30.2511 48.2286 29.6955 47.6893 28.9601C47.1501 28.2411 46.8723 27.4403 46.8723 26.5906C46.8723 25.9042 47.0193 25.2996 47.3135 24.7767C47.6076 24.2537 47.9998 23.7962 48.4901 23.4366C48.9803 23.0608 49.5359 22.783 50.1896 22.5869C50.8432 22.3908 51.5296 22.3091 52.2486 22.3091C52.6081 22.3091 52.984 22.3254 53.3435 22.3744C53.7194 22.4235 54.0625 22.4888 54.4057 22.5542C54.7325 22.6359 55.043 22.7176 55.3372 22.8157C55.6313 22.9137 55.8601 23.0118 56.0235 23.1098C56.2523 23.2405 56.4157 23.3713 56.5138 23.5184C56.6118 23.6491 56.6608 23.8288 56.6608 24.0576V24.8257C56.6608 25.1689 56.5301 25.3486 56.285 25.3486C56.1543 25.3486 55.9418 25.2832 55.664 25.1525C54.7325 24.7276 53.6867 24.5152 52.5264 24.5152C51.595 24.5152 50.8596 24.6623 50.353 24.9728C49.8464 25.2832 49.585 25.7571 49.585 26.4272C49.585 26.8847 49.7484 27.2769 50.0752 27.5874C50.402 27.8979 51.0067 28.2084 51.8728 28.4862L54.1933 29.2216C55.3699 29.5974 56.2196 30.1203 56.7262 30.7903C57.2328 31.4603 57.4779 32.2284 57.4779 33.0782C57.4779 33.7808 57.3308 34.4182 57.053 34.9738C56.7589 35.5294 56.3667 36.0196 55.8601 36.4118C55.3535 36.8204 54.7489 37.1145 54.0462 37.327C53.3108 37.5557 52.5428 37.6701 51.7093 37.6701Z" fill="#252F3E"/>
<path fill-rule="evenodd" clip-rule="evenodd" d="M54.7975 45.6121C49.4212 49.5831 41.61 51.6912 34.8936 51.6912C25.4809 51.6912 16.9997 48.2105 10.5939 42.4255C10.0873 41.968 10.5448 41.347 11.1495 41.7065C18.0782 45.7265 26.6248 48.1614 35.4656 48.1614C41.4302 48.1614 47.9831 46.9195 54.0131 44.3702C54.9119 43.9616 55.68 44.9585 54.7975 45.6121Z" fill="#FF9900"/>
<path fill-rule="evenodd" clip-rule="evenodd" d="M57.0365 43.0629C56.3501 42.1804 52.4936 42.638 50.7452 42.8504C50.2222 42.9158 50.1405 42.4582 50.6144 42.1151C53.6865 39.958 58.7359 40.579 59.3242 41.298C59.9125 42.0333 59.1608 47.0829 56.2848 49.5014C55.8436 49.8773 55.4187 49.6812 55.6148 49.1909C56.2684 47.5731 57.7228 43.929 57.0365 43.0629Z" fill="#FF9900"/>
</svg>
