<svg width="70" height="70" viewBox="0 0 70 70" fill="none" xmlns="http://www.w3.org/2000/svg">
<path d="M35 69C53.7777 69 69 53.7777 69 35C69 16.2223 53.7777 1 35 1C16.2223 1 1 16.2223 1 35C1 53.7777 16.2223 69 35 69Z" fill="white" stroke="#F34F29" stroke-width="2"/>
<path d="M58.7272 32.804L37.1972 11.2751C35.9581 10.0353 33.9472 10.0353 32.7062 11.2751L28.2362 15.7462L33.9073 21.4173C35.2257 20.9724 36.7366 21.2708 37.787 22.3212C38.2876 22.8222 38.6371 23.454 38.7955 24.1443C38.9539 24.8346 38.9148 25.5556 38.6827 26.2247L44.1483 31.6911C45.4706 31.2353 46.9968 31.5298 48.0522 32.5876C49.5288 34.063 49.5288 36.4548 48.0522 37.931C47.7014 38.282 47.2847 38.5605 46.8262 38.7505C46.3676 38.9405 45.8761 39.0383 45.3798 39.0383C44.8834 39.0383 44.3919 38.9405 43.9334 38.7505C43.4748 38.5605 43.0582 38.282 42.7073 37.931C42.1801 37.4034 41.8208 36.7318 41.6745 36.0005C41.5281 35.2692 41.6014 34.5109 41.8851 33.8212L36.7882 28.7239L36.7874 42.1384C37.1572 42.3205 37.4948 42.5617 37.787 42.8524C39.2632 44.3278 39.2632 46.7188 37.787 48.1974C36.3108 49.6728 33.9183 49.6728 32.4437 48.1974C30.9679 46.7192 30.8468 44.3282 32.3222 42.8524C32.687 42.488 33.0468 42.2126 33.4374 42.0282V28.4896C33.0468 28.3052 32.6874 28.0317 32.3218 27.6649C31.2042 26.5478 30.9952 24.9071 31.5687 23.5337L26.0089 17.9427L11.2612 32.7044C10.021 33.9454 10.0288 35.9563 11.269 37.1966L32.8026 58.7255C34.0421 59.9653 36.0546 59.9653 37.296 58.7255L58.7257 37.2966C59.9659 36.056 59.9671 34.0438 58.7272 32.804Z" fill="#F34F29"/>
</svg>
