<svg width="70" height="70" viewBox="0 0 70 70" fill="none" xmlns="http://www.w3.org/2000/svg">
<path d="M35 69C53.7777 69 69 53.7777 69 35C69 16.2223 53.7777 1 35 1C16.2223 1 1 16.2223 1 35C1 53.7777 16.2223 69 35 69Z" stroke="#409433" stroke-width="2"/>
<path fill-rule="evenodd" clip-rule="evenodd" d="M45.5243 25.4253C46.2271 27.4581 46.7332 29.5334 46.8996 31.6845C47.1062 34.353 47.0116 37.0028 46.449 39.6275C46.4337 39.6998 46.4013 39.7676 46.3772 39.8377C46.2008 39.8381 46.0208 39.8162 45.8483 39.8429C44.3908 40.0719 42.9346 40.3092 41.4784 40.5452C39.9731 40.7891 38.4657 41.0233 36.9631 41.2838C36.4307 41.3758 35.7718 41.2659 35.5568 42.0023C35.5507 42.0224 35.4894 42.0259 35.4539 42.0373L35.5266 37.6367L35.4526 27.0185L36.154 26.8981C37.3011 26.7103 38.4482 26.5199 39.5962 26.3373C40.9661 26.1197 42.3374 25.9082 43.7082 25.6959C44.3129 25.6017 44.9184 25.5155 45.5243 25.4253Z" fill="#439934"/>
<path fill-rule="evenodd" clip-rule="evenodd" d="M34.0056 54.8657C33.2657 54.2295 32.5 53.6214 31.7907 52.9524C27.9741 49.3526 25.1826 45.1157 23.8078 40.0076C23.4291 38.6017 23.1764 37.1731 23.0954 35.7204C23.0385 34.7038 22.9562 33.6779 23.028 32.6666C23.2193 29.9765 23.6081 27.3124 24.3971 24.7213L24.4404 24.6609C24.5171 24.7629 24.6274 24.8531 24.6664 24.9682C25.4365 27.2362 26.2009 29.5059 26.9614 31.7769C29.3511 38.9135 31.7377 46.0518 34.1313 53.1866C34.1781 53.3259 34.2994 53.4401 34.3866 53.5658L34.0056 54.8657Z" fill="#45A538"/>
<path fill-rule="evenodd" clip-rule="evenodd" d="M45.5243 25.4253C44.9183 25.5155 44.3124 25.6017 43.7077 25.695C42.3369 25.9073 40.9656 26.1188 39.5957 26.3364C38.4477 26.519 37.3006 26.7094 36.1535 26.8973L35.4521 27.0177L35.4468 26.5601C35.4236 26.184 35.3838 25.8084 35.3794 25.4323C35.3492 23.0339 35.3303 20.6355 35.3006 18.2371C35.2822 16.7357 35.2546 15.2349 35.2239 13.734C35.2051 12.8014 35.185 11.8684 35.143 10.9372C35.1202 10.4367 35.0396 9.93892 35.0068 9.43848C34.9884 9.15083 35.0138 8.86099 35.0195 8.57202C35.3772 9.2651 35.727 9.96344 36.0948 10.6513C36.6758 11.7388 37.6013 12.54 38.4345 13.4144C41.7283 16.8697 44.0667 20.8872 45.5243 25.4253Z" fill="#46A037"/>
<path fill-rule="evenodd" clip-rule="evenodd" d="M35.4536 42.037C35.489 42.0256 35.5507 42.0221 35.5564 42.0019C35.7714 41.2655 36.4303 41.3754 36.9627 41.2835C38.4654 41.0234 39.9728 40.7887 41.478 40.5449C42.9343 40.3089 44.3905 40.0716 45.848 39.8426C46.0205 39.8154 46.2005 39.8378 46.3769 39.8373C46.1046 40.8093 45.89 41.8023 45.5446 42.7476C45.1523 43.8198 44.6777 44.8662 44.1738 45.892C43.4193 47.4221 42.4856 48.857 41.3922 50.1665C40.552 51.177 39.6155 52.1109 38.6768 53.0334C38.158 53.5435 37.5464 53.959 36.9772 54.4174L36.8296 54.3167L36.2981 53.8622L35.7482 52.6569C35.3726 51.2508 35.1677 49.8046 35.1379 48.3496L35.1479 48.1039L35.2228 47.0418C35.2478 46.6792 35.281 46.3172 35.2964 45.9538C35.3529 44.6482 35.4019 43.3426 35.4536 42.037Z" fill="#409433"/>
<path fill-rule="evenodd" clip-rule="evenodd" d="M35.4536 42.0371C35.4019 43.3427 35.3529 44.6483 35.2973 45.9544C35.2819 46.3177 35.2487 46.6798 35.2237 47.0424L34.8888 47.1689C34.1449 44.9789 33.4006 42.8121 32.6725 40.6396C31.4685 37.0454 30.2789 33.4456 29.0766 29.8506C28.1056 26.9489 27.1278 24.0495 26.1432 21.1523C26.0972 21.0166 25.965 20.9106 25.873 20.7907L28.0166 16.8494C28.0902 16.9772 28.1874 17.0967 28.2338 17.2342C29.2266 20.1686 30.2143 23.1047 31.197 26.0424C32.4737 29.8646 33.7425 33.6899 35.0184 37.5126C35.0692 37.6654 35.1532 37.8064 35.2333 37.9776L35.5267 37.6361L35.4536 42.0371Z" fill="#4FAA41"/>
<path fill-rule="evenodd" clip-rule="evenodd" d="M25.8734 20.7913C25.9654 20.9112 26.0972 21.0172 26.1436 21.1529C27.1281 24.0501 28.106 26.9495 29.077 29.8512C30.2793 33.4462 31.4689 37.046 32.6729 40.6401C33.4005 42.8122 34.1449 44.9794 34.8892 47.1695L35.2241 47.0429L35.1492 48.1051L35.0814 48.3498C34.9649 49.5127 34.8668 50.6782 34.725 51.8384C34.6536 52.4199 34.5021 52.9908 34.387 53.5665C34.3003 53.4409 34.1786 53.3266 34.1317 53.1874C31.7381 46.0521 29.3515 38.9142 26.9619 31.7776C26.2016 29.5065 25.4366 27.2369 24.6668 24.969C24.6278 24.8539 24.5179 24.7637 24.4409 24.6616L25.8734 20.7913Z" fill="#4AA73C"/>
<path fill-rule="evenodd" clip-rule="evenodd" d="M35.5261 37.6366L35.2328 37.9781C35.1527 37.8069 35.0686 37.6654 35.0178 37.5131C33.7424 33.6904 32.4732 29.8651 31.1964 26.0429C30.2138 23.1051 29.226 20.1691 28.2332 17.2347C28.1873 17.0972 28.0901 16.9772 28.0161 16.8498L30.6671 13.3625C30.7507 13.4742 30.8698 13.5736 30.9132 13.6992C31.6492 15.8538 32.3786 18.011 33.1036 20.1694C33.7809 22.1852 34.4482 24.204 35.1334 26.2171C35.1794 26.352 35.3392 26.4474 35.446 26.5613L35.4513 27.0188C35.4766 30.5573 35.5016 34.0972 35.5261 37.6366Z" fill="#57AE47"/>
<path fill-rule="evenodd" clip-rule="evenodd" d="M35.4469 26.5604C35.3401 26.4465 35.1803 26.3511 35.1343 26.2162C34.4491 24.2031 33.7819 22.1843 33.1045 20.1685C32.3795 18.01 31.6501 15.8533 30.9141 13.6983C30.8707 13.5727 30.7517 13.4733 30.668 13.3616C31.5301 12.5175 32.3655 11.6432 33.2622 10.838C34.0594 10.1226 34.7004 9.35551 34.7298 8.22504C34.7311 8.1782 34.7556 8.13135 34.7932 8L35.0205 8.5718C35.0148 8.86121 34.9889 9.15061 35.0078 9.43826C35.0406 9.9387 35.1212 10.4365 35.1439 10.9369C35.186 11.8682 35.2061 12.8012 35.2249 13.7338C35.2551 15.2347 35.2827 16.7355 35.3016 18.2368C35.3309 20.6352 35.3502 23.0337 35.3804 25.4321C35.3839 25.809 35.4233 26.1843 35.4469 26.5604Z" fill="#60B24F"/>
<path fill-rule="evenodd" clip-rule="evenodd" d="M34.386 53.5658C34.5011 52.9901 34.6526 52.4187 34.724 51.8377C34.8663 50.6779 34.9639 49.512 35.0804 48.3491L35.1093 48.3447L35.1382 48.3495C35.168 49.8046 35.3729 51.2508 35.7485 52.6569C35.6715 52.7585 35.5624 52.8491 35.5217 52.9638C35.2034 53.8613 34.9035 54.7659 34.5835 55.6634C34.5397 55.786 34.418 55.8815 34.3321 55.9892L34.0051 54.8657L34.386 53.5658Z" fill="#A9AA88"/>
<path fill-rule="evenodd" clip-rule="evenodd" d="M34.3328 55.99C34.4186 55.8823 34.5407 55.7869 34.5841 55.6643C34.9041 54.7667 35.2045 53.8626 35.5223 52.9646C35.5631 52.8499 35.6716 52.7593 35.7491 52.6577L36.2986 53.8635C36.19 54.0176 36.0403 54.1564 35.9799 54.328L34.9273 57.4186C34.884 57.5425 34.736 57.6301 34.6371 57.7348L34.3328 55.99Z" fill="#B6B598"/>
<path fill-rule="evenodd" clip-rule="evenodd" d="M34.637 57.7341C34.7363 57.6299 34.8839 57.5419 34.9272 57.4179L35.9798 54.3273C36.0398 54.1561 36.1899 54.0169 36.2985 53.8628L36.8305 54.3168C36.5735 54.5708 36.4307 54.8641 36.5166 55.2349L36.355 55.7638C36.2814 55.8545 36.175 55.9333 36.1387 56.037C35.7714 57.0891 35.4207 58.1469 35.0507 59.199C35.0039 59.3326 34.8738 59.4372 34.7819 59.5545C34.7342 58.9473 34.6856 58.3413 34.637 57.7341Z" fill="#C2C1A7"/>
<path fill-rule="evenodd" clip-rule="evenodd" d="M34.7822 59.5544C34.8738 59.4366 35.0038 59.332 35.0511 59.1989C35.421 58.1472 35.7717 57.0894 36.1391 56.0369C36.1754 55.9335 36.2814 55.8543 36.3554 55.7637L36.1325 58.1914C36.073 58.2602 35.9867 58.3201 35.9582 58.4003C35.7065 59.1069 35.4692 59.8188 35.2166 60.5255C35.1645 60.6713 35.0646 60.8 34.9867 60.9362C34.9175 60.8455 34.7936 60.758 34.7879 60.6634C34.7656 60.2952 34.7809 59.9243 34.7822 59.5544Z" fill="#CECDB7"/>
<path fill-rule="evenodd" clip-rule="evenodd" d="M34.9863 60.9364C35.0643 60.7998 35.1641 60.6711 35.2162 60.5257C35.4693 59.8195 35.7061 59.1076 35.9579 58.4005C35.9863 58.3204 36.073 58.2608 36.1321 58.1917L36.1374 59.7853L35.6041 61.1531L34.9863 60.9364Z" fill="#DBDAC7"/>
<path fill-rule="evenodd" clip-rule="evenodd" d="M35.604 61.1534L36.1373 59.7856L36.2472 61.4039L35.604 61.1534Z" fill="#EBE9DC"/>
<path fill-rule="evenodd" clip-rule="evenodd" d="M36.5167 55.2355C36.4309 54.8647 36.5732 54.5709 36.8306 54.3174L36.9782 54.4181L36.5167 55.2355Z" fill="#CECDB7"/>
<path fill-rule="evenodd" clip-rule="evenodd" d="M35.1384 48.3502L35.1095 48.3453L35.0806 48.3497L35.1485 48.105L35.1384 48.3502Z" fill="#4FAA41"/>
</svg>
