<svg width="70" height="70" viewBox="0 0 70 70" fill="none" xmlns="http://www.w3.org/2000/svg">
<path d="M35 69C53.7777 69 69 53.7777 69 35C69 16.2223 53.7777 1 35 1C16.2223 1 1 16.2223 1 35C1 53.7777 16.2223 69 35 69Z" fill="white" stroke="#6181B6" stroke-width="2"/>
<path d="M34.9999 20.4871C19.1843 20.4871 6.36206 26.9849 6.36206 35C6.36206 43.0152 19.1843 49.513 34.9999 49.513C50.8155 49.513 63.6377 43.0152 63.6377 35C63.6377 26.9849 50.8155 20.4871 34.9999 20.4871ZM27.5482 37.8275C26.8647 38.4669 26.1058 38.7308 25.2701 39.0027C24.4343 39.275 23.3707 39.2188 22.0774 39.2188H19.1463L18.334 43.9063H14.9116L17.9655 27.9688H24.5468C26.5268 27.9688 27.971 28.5383 28.879 29.5775C29.7869 30.6167 30.0597 32.0919 29.6979 33.9542C29.5483 34.7216 29.2966 35.435 28.9413 36.0707C28.5731 36.7265 28.1028 37.3195 27.5482 37.8275ZM37.5377 39.2188L38.8882 32.4594C39.0419 31.6682 38.9857 31.0803 38.719 30.793C38.4518 30.5052 37.8836 30.3125 37.0151 30.3125H34.301L32.5521 39.2188H29.1565L32.2104 23.75H35.606L34.7941 27.9688H37.819C39.7226 27.9688 41.0351 28.3508 41.7574 29.0146C42.4797 29.6783 42.6963 30.5877 42.4076 32.0746L40.9868 39.2188H37.5377ZM56.4091 33.9791C56.2601 34.7464 56.0079 35.4477 55.653 36.0828C55.2977 36.7189 54.8336 37.3007 54.2604 37.8275C53.5769 38.4669 52.8175 38.7308 51.9822 39.0027C51.1469 39.275 50.0824 39.2188 48.7891 39.2188H45.858L45.0461 43.9063H41.6238L44.6772 27.9688H51.259C53.239 27.9688 54.6832 28.5383 55.5907 29.5775C56.4977 30.6167 56.771 32.1172 56.4091 33.9791ZM49.9619 30.3125H47.6177L46.3394 36.875H48.4216C49.8007 36.875 50.8291 36.7391 51.5041 36.2188C52.1801 35.6994 52.6352 34.8932 52.8719 33.6777C53.0988 32.51 52.9957 31.5992 52.5626 31.1192C52.129 30.6392 51.2622 30.3125 49.9619 30.3125ZM23.2502 30.3125H20.9055L19.6272 36.875H21.709C23.0885 36.875 24.1165 36.7391 24.7919 36.2188C25.4674 35.6994 25.923 34.8932 26.1593 33.6777C26.3861 32.51 26.283 31.5992 25.8499 31.1192C25.4168 30.6392 24.5505 30.3125 23.2502 30.3125Z" fill="#6181B6"/>
</svg>
