<svg width="78" height="78" viewBox="0 0 78 78" fill="none" xmlns="http://www.w3.org/2000/svg">
<g filter="url(#filter0_d_53_38)">
<path d="M58.1943 18.8218C53.2838 12.9739 43.5842 11.2407 36.5737 14.958L24.2574 21.4893C22.5913 22.3587 21.1616 23.5075 20.0595 24.8629C18.9575 26.2183 18.2078 27.7501 17.8582 29.3602C17.7024 30.0827 17.6231 30.8197 17.6217 31.5588C17.6292 33.5632 18.2198 35.5364 19.3428 37.3098C18.2899 38.6408 17.5711 40.1354 17.2301 41.7036C16.8808 43.3427 16.9298 45.0416 17.3728 46.6578C17.8162 48.2847 18.6454 49.8217 19.812 51.1788C24.7222 57.0263 34.4435 58.7595 41.4323 55.0426L53.7358 48.5109C55.401 47.6406 56.8289 46.4904 57.9282 45.1336C59.0272 43.7768 59.7731 42.2437 60.1179 40.6328C60.2761 39.9086 60.3555 39.174 60.3544 38.4376C60.3513 36.437 59.7683 34.467 58.6546 32.6939C59.7071 31.3639 60.4259 29.8707 60.7676 28.3039C60.9202 27.5789 60.9979 26.8446 61 26.1087C61.0007 23.4979 60.0196 20.9524 58.1943 18.8287V18.8218Z" fill="#FF3E00"/>
<path d="M35.3699 51.7292C34.561 51.9026 33.736 51.9902 32.9087 51.9905C31.3292 51.9908 29.773 51.6725 28.3736 51.0624C26.9745 50.4525 25.7738 49.5694 24.8745 48.4887C23.7766 47.2113 23.1867 45.6799 23.1877 44.1093C23.1884 43.6666 23.2345 43.225 23.3252 42.7917C23.3991 42.4656 23.4986 42.1459 23.6226 41.8354L23.855 41.2483L24.483 41.6456C25.9415 42.5363 27.5713 43.2145 29.3024 43.6511L29.7589 43.7656L29.7159 44.1451V44.342C29.7149 44.8167 29.8926 45.2805 30.2236 45.6668C30.4911 45.9962 30.8513 46.2663 31.2728 46.4533C31.7044 46.6427 32.1706 46.7407 32.6419 46.7411C32.8908 46.7419 33.1389 46.7155 33.382 46.6623C33.6458 46.6049 33.9006 46.5122 34.1397 46.3867L46.4425 39.8231C46.8114 39.6285 47.1152 39.3593 47.3253 39.0407C47.535 38.722 47.6443 38.3642 47.6429 38.0005C47.6395 37.5258 47.4573 37.0638 47.1221 36.6791C46.8506 36.3539 46.4882 36.0885 46.0665 35.905C45.6346 35.7197 45.1693 35.6249 44.6994 35.6265C44.4505 35.6258 44.2023 35.6523 43.9593 35.7056C43.6967 35.7617 43.4433 35.8544 43.2064 35.981L38.516 38.4732C37.7266 38.8867 36.8859 39.1937 36.0159 39.3862C35.2115 39.5587 34.3848 39.6467 33.5543 39.6474C31.9751 39.6474 30.4196 39.3291 29.0205 38.72C27.6215 38.1108 26.4204 37.2288 25.5201 36.1494C24.4235 34.8713 23.8337 33.3403 23.8333 31.77C23.834 31.3283 23.8801 30.8876 23.9708 30.4524C24.1815 29.4844 24.6312 28.5635 25.2922 27.7481C25.9529 26.9324 26.8102 26.2401 27.8095 25.7152L40.1254 19.1873C40.8982 18.7783 41.741 18.4689 42.6255 18.2705C43.4299 18.099 44.2566 18.0127 45.0868 18.0127C46.6697 18.0093 48.23 18.3255 49.6339 18.9343C51.0378 19.5428 52.243 20.4262 53.1467 21.5076C54.2367 22.7888 54.8191 24.3209 54.8122 25.8905C54.8114 26.3345 54.7652 26.7772 54.6743 27.2119C54.6006 27.5378 54.5013 27.8575 54.3773 28.1678L54.145 28.755L53.5169 28.372C52.0594 27.48 50.4294 26.8018 48.6975 26.3666L48.241 26.2487L48.284 25.8688V25.6722C48.284 25.1961 48.1066 24.732 47.7763 24.3436C47.5051 24.0187 47.1438 23.7537 46.7223 23.5702C46.2913 23.3848 45.8269 23.2896 45.3576 23.2907C45.1113 23.2951 44.8661 23.3264 44.6265 23.3838C44.3622 23.439 44.1071 23.5318 43.8692 23.6595L31.5533 30.1874C31.2611 30.3389 31.0028 30.5483 30.7939 30.8027C30.5992 31.0402 30.4628 31.32 30.3959 31.6198C30.3656 31.7443 30.3468 31.8713 30.3398 31.9993C30.3395 32.473 30.5169 32.935 30.8476 33.3207C31.1184 33.6455 31.4801 33.9109 31.9012 34.0941C32.3322 34.2795 32.7966 34.3745 33.2658 34.3732C33.5147 34.374 33.7629 34.3475 34.0059 34.2942C34.2702 34.2385 34.5252 34.1458 34.7636 34.0188L39.4627 31.5122C40.2517 31.0979 41.0925 30.7909 41.9628 30.5992C42.7717 30.426 43.5967 30.3384 44.424 30.3379C46.0039 30.3379 47.5601 30.6559 48.9598 31.265C50.3596 31.8742 51.5617 32.7566 52.4626 33.8363C53.5592 35.114 54.1491 36.6451 54.1494 38.2157C54.1505 38.6622 54.103 39.1081 54.0075 39.5474C53.7981 40.5157 53.3485 41.437 52.6878 42.2527C52.0268 43.0681 51.1691 43.7601 50.1688 44.2846L37.8745 50.8125C37.0842 51.2279 36.2417 51.5363 35.3699 51.7292Z" fill="white"/>
<path d="M58.1943 18.8218C53.2838 12.9739 43.5842 11.2407 36.5737 14.958L24.2574 21.4893C22.5913 22.3587 21.1616 23.5075 20.0595 24.8629C18.9575 26.2183 18.2078 27.7501 17.8582 29.3602C17.7024 30.0827 17.6231 30.8197 17.6217 31.5588C17.6292 33.5632 18.2198 35.5364 19.3428 37.3098C18.2899 38.6408 17.5711 40.1354 17.2301 41.7036C16.8808 43.3427 16.9298 45.0416 17.3728 46.6578C17.8162 48.2847 18.6454 49.8217 19.812 51.1788C24.7222 57.0263 34.4435 58.7595 41.4323 55.0426L53.7358 48.5109C55.401 47.6406 56.8289 46.4904 57.9282 45.1336C59.0272 43.7768 59.7731 42.2437 60.1179 40.6328C60.2761 39.9086 60.3555 39.174 60.3544 38.4376C60.3513 36.437 59.7683 34.467 58.6546 32.6939C59.7071 31.3639 60.4259 29.8707 60.7676 28.3039C60.9202 27.5789 60.9979 26.8446 61 26.1087C61.0007 23.4979 60.0196 20.9524 58.1943 18.8287V18.8218Z" fill="#FF3E00"/>
<path d="M35.3699 51.7295C34.561 51.9029 33.736 51.9904 32.9086 51.9907C31.3291 51.9911 29.773 51.6728 28.3735 51.0626C26.9745 50.4528 25.7737 49.5697 24.8745 48.4889C23.7766 47.2116 23.1867 45.6801 23.1877 44.1095C23.1884 43.6668 23.2344 43.2253 23.3252 42.7919C23.3991 42.4659 23.4985 42.1461 23.6226 41.8356L23.8549 41.2485L24.483 41.6459C25.9415 42.5365 27.5712 43.2148 29.3024 43.6513L29.7589 43.7658L29.7159 44.1453V44.3423C29.7149 44.817 29.8926 45.2807 30.2236 45.6671C30.491 45.9964 30.8513 46.2666 31.2727 46.4536C31.7044 46.6429 32.1705 46.7409 32.6419 46.7413C32.8907 46.7421 33.1389 46.7157 33.382 46.6626C33.6458 46.6051 33.9006 46.5124 34.1396 46.3869L46.4425 39.8233C46.8113 39.6287 47.1152 39.3596 47.3252 39.0409C47.5349 38.7223 47.6442 38.3644 47.6429 38.0007C47.6394 37.526 47.4572 37.064 47.1221 36.6794C46.8505 36.3542 46.4882 36.0888 46.0664 35.9052C45.6346 35.7199 45.1693 35.6251 44.6993 35.6268C44.4505 35.6261 44.2023 35.6526 43.9592 35.7059C43.6966 35.7619 43.4432 35.8546 43.2064 35.9812L38.5159 38.4734C37.7266 38.8869 36.8859 39.1939 36.0158 39.3864C35.2114 39.559 34.3847 39.647 33.5542 39.6476C31.975 39.6476 30.4195 39.3293 29.0205 38.7202C27.6214 38.1111 26.4203 37.229 25.5201 36.1496C24.4235 34.8716 23.8336 33.3405 23.8333 31.7702C23.834 31.3285 23.88 30.8878 23.9708 30.4526C24.1815 29.4846 24.6311 28.5637 25.2922 27.7484C25.9528 26.9326 26.8102 26.2403 27.8094 25.7154L40.1254 19.1876C40.8981 18.7785 41.741 18.4691 42.6255 18.2708C43.4298 18.0992 44.2566 18.013 45.0867 18.013C46.6697 18.0095 48.23 18.3258 49.6339 18.9346C51.0378 19.543 52.2429 20.4264 53.1467 21.5079C54.2367 22.789 54.819 24.3211 54.8121 25.8907C54.8114 26.3347 54.7652 26.7775 54.6743 27.2121C54.6005 27.5381 54.5012 27.8577 54.3773 28.1681L54.1449 28.7552L53.5169 28.3723C52.0594 27.4802 50.4293 26.802 48.6975 26.3668L48.241 26.2489L48.284 25.8691V25.6724C48.284 25.1963 48.1066 24.7323 47.7762 24.3438C47.505 24.019 47.1437 23.754 46.7223 23.5704C46.2913 23.385 45.8268 23.2899 45.3576 23.2909C45.1112 23.2954 44.8661 23.3266 44.6264 23.3841C44.3621 23.4392 44.1071 23.5321 43.8692 23.6598L31.5532 30.1876C31.2611 30.3392 31.0027 30.5485 30.7939 30.8029C30.5991 31.0404 30.4628 31.3203 30.3958 31.62C30.3655 31.7445 30.3468 31.8716 30.3398 31.9995C30.3395 32.4732 30.5168 32.9352 30.8475 33.3209C31.1184 33.6458 31.48 33.9111 31.9011 34.0943C32.3321 34.2797 32.7966 34.3747 33.2658 34.3735C33.5147 34.3742 33.7628 34.3477 34.0059 34.2944C34.2701 34.2387 34.5252 34.146 34.7635 34.0191L39.4626 31.5124C40.2516 31.0982 41.0924 30.7911 41.9627 30.5994C42.7717 30.4262 43.5967 30.3387 44.424 30.3382C46.0039 30.3382 47.56 30.6561 48.9598 31.2653C50.3595 31.8744 51.5616 32.7568 52.4626 33.8365C53.5592 35.1143 54.149 36.6453 54.1494 38.2159C54.1504 38.6625 54.103 39.1083 54.0074 39.5476C53.7981 40.516 53.3484 41.4372 52.6878 42.2529C52.0267 43.0683 51.1691 43.7603 50.1687 44.2849L37.8745 50.8127C37.0842 51.2282 36.2416 51.5365 35.3699 51.7295Z" fill="white"/>
<path d="M39 69C57.7777 69 73 53.7777 73 35C73 16.2223 57.7777 1 39 1C20.2223 1 5 16.2223 5 35C5 53.7777 20.2223 69 39 69Z" stroke="#FF3E00" stroke-width="2"/>
</g>
<defs>
<filter id="filter0_d_53_38" x="0" y="0" width="78" height="78" filterUnits="userSpaceOnUse" color-interpolation-filters="sRGB">
<feFlood flood-opacity="0" result="BackgroundImageFix"/>
<feColorMatrix in="SourceAlpha" type="matrix" values="0 0 0 0 0 0 0 0 0 0 0 0 0 0 0 0 0 0 127 0" result="hardAlpha"/>
<feOffset dy="4"/>
<feGaussianBlur stdDeviation="2"/>
<feComposite in2="hardAlpha" operator="out"/>
<feColorMatrix type="matrix" values="0 0 0 0 0 0 0 0 0 0 0 0 0 0 0 0 0 0 0.25 0"/>
<feBlend mode="normal" in2="BackgroundImageFix" result="effect1_dropShadow_53_38"/>
<feBlend mode="normal" in="SourceGraphic" in2="effect1_dropShadow_53_38" result="shape"/>
</filter>
</defs>
</svg>
