<svg width="70" height="70" viewBox="0 0 70 70" fill="none" xmlns="http://www.w3.org/2000/svg">
<path d="M35 69C53.7777 69 69 53.7777 69 35C69 16.2223 53.7777 1 35 1C16.2223 1 1 16.2223 1 35C1 53.7777 16.2223 69 35 69Z" fill="white" stroke="#FDBD39" stroke-width="2"/>
<mask id="mask0_53_232" style="mask-type:luminance" maskUnits="userSpaceOnUse" x="10" y="15" width="50" height="40">
<path d="M60 15.0166H10V54.9825H60V15.0166Z" fill="white"/>
</mask>
<g mask="url(#mask0_53_232)">
<path d="M17.7073 42.5718L15.0918 43.5274L14.9526 51.3074L24.0062 48.0001C20.8983 46.9593 18.6318 45.125 17.7073 42.5718Z" fill="#FDBD39"/>
<path d="M19.0764 34.343L10 37.6586L15.0918 43.5295L17.7073 42.5739C16.7849 40.029 17.3542 37.1559 19.0764 34.343Z" fill="#F69833"/>
<path d="M34.3477 23.1146C22.7908 27.3359 15.339 36.0487 17.7073 42.5719L59.5575 27.284C57.1892 20.7608 45.9045 18.8932 34.3477 23.1146Z" fill="#FECF33"/>
<path d="M42.915 46.7433C54.4719 42.5219 61.9361 33.8485 59.5554 27.2859L17.7051 42.5717C20.0859 49.1365 31.3581 50.9646 42.915 46.7433Z" fill="#EE6723"/>
<path d="M59.5554 27.2839L17.7073 42.5719C18.5259 44.8321 21.6524 45.9456 26.0358 45.9456C30.3112 45.9456 35.7832 44.8882 41.4879 42.8045C53.0447 38.5832 61.1738 31.7463 59.5554 27.2839Z" fill="#F69833"/>
<path d="M51.2268 23.9121C46.9535 23.9121 41.4794 24.9695 35.7748 27.0532C24.2179 31.2746 16.0889 38.1094 17.7072 42.5717L59.5574 27.2838C58.7368 25.0235 55.6123 23.9121 51.2268 23.9121Z" fill="#FDBD39"/>
<path d="M48.9146 51.7208C47.6827 51.7208 45.867 50.6093 43.5154 48.4156C40.7337 45.8208 37.549 42.0191 34.5429 37.7126C31.5389 33.406 29.0709 29.1015 27.5918 25.5886C25.9818 21.7619 25.7512 19.4103 26.9083 18.5959C27.1763 18.4131 27.4942 18.3196 27.8182 18.3279C28.7593 18.3279 30.5958 19.028 33.9882 22.3685L34.063 22.4412L34.0526 22.5451C34.0298 22.7861 34.009 23.0271 33.9903 23.266L33.9529 23.7376L33.6205 23.4031C29.9642 19.7198 28.3563 19.323 27.8328 19.323C27.6832 19.323 27.5648 19.3521 27.4796 19.4123C26.9769 19.7655 26.9436 21.4939 28.5059 25.2022C29.958 28.6507 32.3907 32.8908 35.3552 37.1413C38.3218 41.3938 41.4587 45.1373 44.1926 47.6864C47.1384 50.4348 48.4659 50.7319 48.9001 50.7319C49.0497 50.7319 49.1701 50.7007 49.2615 50.6363C49.7913 50.2645 49.7913 48.4135 48.0504 44.4206L47.9694 44.2378L48.1439 44.1423C48.3184 44.0467 48.4887 43.9532 48.6466 43.8618L48.8564 43.7434L48.9541 43.9636C50.1881 46.7931 51.3431 50.3891 49.8287 51.4528C49.5607 51.6356 49.2408 51.7291 48.9146 51.7208Z" fill="#EE6723"/>
<path d="M43.1955 46.6227L43.1789 46.8388C42.886 50.4536 42.1173 54.7996 40.1105 54.9762C40.069 54.9803 40.0274 54.9803 39.988 54.9803C38.6252 54.9803 37.3351 53.0275 36.1572 49.178C35.0395 45.5342 34.1732 40.6439 33.7183 35.4066C33.2612 30.1694 33.2675 25.2022 33.737 21.4192C34.248 17.2975 35.2203 15.1453 36.6288 15.0206C36.6703 15.0165 36.7139 15.0144 36.7555 15.0144C37.7443 15.0144 39.2339 16.1341 40.7587 21.3485L39.7636 21.5397C39.2546 19.7988 38.7 18.3819 38.1494 17.4055C37.6405 16.506 37.144 16.0095 36.7555 16.0095C36.743 16.0095 36.7306 16.0095 36.716 16.0116C36.1052 16.0656 35.2161 17.5447 34.7217 21.5417C34.2605 25.2562 34.2542 30.1507 34.7051 35.3194C35.1559 40.4901 36.0076 45.3077 37.1045 48.8851C37.5948 50.4868 38.1328 51.8081 38.6626 52.7034C39.1487 53.5303 39.6203 53.9852 39.988 53.9852C40.0004 53.9852 40.0129 53.9852 40.0254 53.9831C40.6091 53.9333 41.7102 52.3918 42.1734 46.9718L43.1955 46.6227Z" fill="#EE6723"/>
</g>
</svg>
