<svg width="420" height="42" viewBox="0 0 420 42" fill="none" xmlns="http://www.w3.org/2000/svg">
<path d="M0 40.9437H9.8134V0.599731H4.9067C2.23527 0.599731 0 2.835 0 5.50642V40.9437ZM14.7201 31.1303H18.4819C26.9323 31.1303 33.7472 24.3155 33.7472 15.865C33.7472 7.41461 26.9323 0.599747 18.4819 0.599747H14.7201V10.4131H18.4819C21.4804 10.4131 23.9338 12.8665 23.9338 15.865C23.9338 18.8636 21.4804 21.3169 18.4819 21.3169H14.7201V31.1303Z" fill="url(#paint0_linear_34_86)"/>
<path d="M67.1741 40.9437H76.9875V0.599731H72.0808C69.4093 0.599731 67.1741 2.835 67.1741 5.50642V40.9437ZM91.8711 40.9437H103.102L93.8338 27.8592C99.1221 25.8965 102.829 21.1534 102.829 15.0472C102.829 7.03296 96.3962 0.599731 88.3819 0.599731H81.8942V10.4131H88.3819C90.9443 10.4131 93.016 12.4849 93.016 15.0472C93.016 17.6096 90.9443 19.6814 88.3819 19.6814H81.9487V26.6598L91.8711 40.9437Z" fill="url(#paint1_linear_34_86)"/>
<path d="M154.084 41.3253V31.4029C149.177 30.258 145.525 25.8965 145.525 20.6627C145.525 15.4288 149.177 11.0673 154.084 9.92244V0C143.725 1.19942 135.711 9.97696 135.711 20.6627C135.711 31.3484 143.725 40.1259 154.084 41.3253ZM158.991 41.3253C169.349 40.1259 177.364 31.3484 177.364 20.6627C177.364 9.75888 169.131 1.19941 158.991 0V9.92244C163.897 11.0673 167.55 15.4288 167.55 20.6627C167.55 25.8965 163.897 30.258 158.991 31.4029V41.3253Z" fill="url(#paint2_linear_34_86)"/>
<path d="M269.187 41.1618C277.256 39.9624 283.417 33.093 283.417 24.6971L283.362 0.599731H273.549L273.603 24.6971C273.603 27.5866 271.804 30.0945 269.187 31.0758V41.1618ZM264.28 41.1618V31.0758C262.754 30.4761 261.5 29.3857 260.737 28.0227L252.395 33.1475C254.903 37.4 259.21 40.3985 264.28 41.1618Z" fill="url(#paint3_linear_34_86)"/>
<path d="M323.931 40.9437H328.838V0.599731H323.931C321.259 0.599731 319.024 2.835 319.024 5.50642V36.037C319.024 38.7084 321.259 40.9437 323.931 40.9437ZM333.744 10.4131H350.591V0.599747H333.744V10.4131ZM333.744 25.6784H348.955V15.865H333.744V25.6784ZM333.744 40.9437H350.591V31.1303H333.744V40.9437Z" fill="url(#paint4_linear_34_86)"/>
<path d="M385.108 10.4131H420V0.599731H385.108V10.4131ZM397.647 40.9437H407.461V15.3198H397.647V40.9437Z" fill="url(#paint5_linear_34_86)"/>
<defs>
<linearGradient id="paint0_linear_34_86" x1="0" y1="20.6627" x2="420" y2="20.6627" gradientUnits="userSpaceOnUse">
<stop stop-color="#4568DC"/>
<stop offset="1" stop-color="#B06AB3"/>
</linearGradient>
<linearGradient id="paint1_linear_34_86" x1="-3.55754e-05" y1="20.6627" x2="420" y2="20.6627" gradientUnits="userSpaceOnUse">
<stop stop-color="#4568DC"/>
<stop offset="1" stop-color="#B06AB3"/>
</linearGradient>
<linearGradient id="paint2_linear_34_86" x1="1.73127e-05" y1="20.6627" x2="420" y2="20.6627" gradientUnits="userSpaceOnUse">
<stop stop-color="#4568DC"/>
<stop offset="1" stop-color="#B06AB3"/>
</linearGradient>
<linearGradient id="paint3_linear_34_86" x1="6.26851e-05" y1="20.6627" x2="420" y2="20.6627" gradientUnits="userSpaceOnUse">
<stop stop-color="#4568DC"/>
<stop offset="1" stop-color="#B06AB3"/>
</linearGradient>
<linearGradient id="paint4_linear_34_86" x1="3.37479e-05" y1="20.6627" x2="420" y2="20.6627" gradientUnits="userSpaceOnUse">
<stop stop-color="#4568DC"/>
<stop offset="1" stop-color="#B06AB3"/>
</linearGradient>
<linearGradient id="paint5_linear_34_86" x1="0.000100545" y1="20.6627" x2="420" y2="20.6627" gradientUnits="userSpaceOnUse">
<stop stop-color="#4568DC"/>
<stop offset="1" stop-color="#B06AB3"/>
</linearGradient>
</defs>
</svg>
