<svg width="420" height="76" viewBox="0 0 420 76" fill="none" xmlns="http://www.w3.org/2000/svg">
<path d="M121.045 11.2437C127.995 11.2437 133.367 12.9068 137.163 16.2331C140.96 19.5593 142.858 24.252 142.858 30.3109C142.858 36.7409 140.96 41.7426 137.163 45.3162C133.367 48.8897 127.995 50.6765 121.045 50.6765H113.7V64.5132H96.0428V11.2437H121.045ZM113.7 37.322H120.155C122.084 37.322 123.562 36.7532 124.588 35.6156C125.614 34.478 126.128 32.8953 126.128 30.8674C126.128 28.8889 125.608 27.3556 124.569 26.2675C123.531 25.1794 122.059 24.6353 120.155 24.6353H113.7V37.322Z" fill="#BEC6C4"/>
<path d="M172.386 50.6765H165.783V64.5132H148.125V11.2437H173.907C181.153 11.2437 186.748 12.9068 190.693 16.2331C194.637 19.5593 196.609 24.252 196.609 30.3109C196.609 34.1689 195.886 37.526 194.439 40.3824C192.993 43.2388 190.909 45.5078 188.189 47.1895L198.65 64.5132H178.766L172.386 50.6765ZM173.907 37.322C175.836 37.322 177.313 36.7532 178.34 35.6156C179.366 34.478 179.879 32.8953 179.879 30.8674C179.879 28.8889 179.36 27.3556 178.321 26.2675C177.282 25.1794 175.811 24.6353 173.907 24.6353H165.783V37.322L173.907 37.322Z" fill="#BEC6C4"/>
<path d="M229.773 10.7244C235.337 10.7244 240.351 11.8867 244.815 14.2114C249.279 16.536 252.766 19.7634 255.276 23.8934C257.786 28.0233 259.042 32.6727 259.042 37.8414C259.042 43.0595 257.786 47.7459 255.276 51.9006C252.766 56.0554 249.279 59.3198 244.815 61.6939C240.351 64.0681 235.337 65.2551 229.773 65.2551C224.209 65.2551 219.195 64.0804 214.731 61.731C210.267 59.3816 206.786 56.1172 204.288 51.9377C201.79 47.7583 200.542 43.0595 200.542 37.8414C200.542 32.6232 201.79 27.9615 204.288 23.8563C206.786 19.751 210.267 16.536 214.731 14.2114C219.195 11.8867 224.209 10.7244 229.773 10.7244ZM229.996 25.3772C227.968 25.3772 226.082 25.9212 224.338 27.0094C222.595 28.0975 221.204 29.5937 220.165 31.498C219.126 33.4022 218.607 35.5414 218.607 37.9155C218.607 40.2897 219.126 42.4412 220.165 44.3702C221.204 46.2992 222.595 47.8201 224.338 48.933C226.082 50.0458 227.968 50.6023 229.996 50.6023C232.023 50.6023 233.872 50.0458 235.541 48.933C237.211 47.8201 238.528 46.2992 239.492 44.3702C240.457 42.4412 240.939 40.2897 240.939 37.9155C240.939 35.5414 240.457 33.4022 239.492 31.498C238.528 29.5937 237.211 28.0975 235.541 27.0094C233.872 25.9212 232.023 25.3772 229.996 25.3772Z" fill="#BEC6C4"/>
<path d="M316.206 46.5217C316.206 52.4323 314.413 57.0322 310.827 60.3214C307.241 63.6105 302.357 65.2551 296.174 65.2551C287.964 65.2551 281.052 62.1762 275.438 56.0183L283.413 44.5928C285.392 46.5712 287.376 48.0674 289.367 49.0813C291.358 50.0953 293.071 50.6023 294.505 50.6023C295.766 50.6023 296.749 50.2251 297.454 49.4709C298.159 48.7166 298.511 47.5975 298.511 46.1137V25.1546H280.446V11.2437H316.206V46.5217Z" fill="#BEC6C4"/>
<path d="M340.689 24.6353V31.1641H365.581V44.5186H340.689V51.1587H368.771V64.5132H323.032V11.2437H368.103V24.6353L340.689 24.6353Z" fill="#BEC6C4"/>
<path d="M404.791 25.1546V64.5132H387.17V25.1546H372.035V11.2437H420V25.1546H404.791Z" fill="#BEC6C4"/>
<path fill-rule="evenodd" clip-rule="evenodd" d="M0 0V43.3249L62.5406 21.6613L0 0ZM62.5406 75.9795V32.6546L0 54.3182L62.5406 75.9795Z" fill="#BEC6C4"/>
</svg>
